<svg width="599" height="599" fill="none" xmlns="http://www.w3.org/2000/svg"><circle cx="299.5" cy="299.5" r="299.5" fill="#000"/><path d="M443.799 142.505H156.201a6.845 6.845 0 0 0-6.847 6.847v219.122h301.293V149.353a6.849 6.849 0 0 0-6.848-6.848Z" fill="#E4EAF8"/><path d="M422.856 340.657H177.143a6.819 6.819 0 0 1-6.82-6.82V170.296a6.821 6.821 0 0 1 6.82-6.821h245.712a6.821 6.821 0 0 1 6.821 6.821v163.541a6.831 6.831 0 0 1-1.998 4.823 6.827 6.827 0 0 1-4.822 1.997Z" fill="#4DD5FF"/><path d="M217.829 252.067c26.473 0 47.933-21.461 47.933-47.934 0-17.468-9.374-32.707-23.336-41.085h-49.194c-13.963 8.378-23.337 23.617-23.337 41.085.001 26.473 21.461 47.934 47.934 47.934Z" fill="#8BE4FF"/><path d="M306.848 101.42h-13.695a6.849 6.849 0 0 0-6.848 6.847v20.543h27.391v-20.543a6.846 6.846 0 0 0-6.848-6.847Zm-20.544 280.75h27.391v116.409h-27.391V382.17Zm-95.865 6.847-20.543 109.562h27.391l20.542-109.562h-27.39Zm219.122 0 20.543 109.562h-27.391l-20.542-109.562h27.39Z" fill="#FFC850"/><path d="M217.828 231.524c15.128 0 27.391-12.263 27.391-27.391 0-15.127-12.263-27.39-27.391-27.39-15.127 0-27.39 12.263-27.39 27.39 0 15.128 12.263 27.391 27.39 27.391Z" fill="#fff"/><path d="M334.238 156.2h-68.476a6.845 6.845 0 0 1-6.847-6.847v-13.696a6.846 6.846 0 0 1 6.847-6.847h68.476c1.816 0 3.557.721 4.841 2.006a6.842 6.842 0 0 1 2.006 4.841v13.695a6.854 6.854 0 0 1-2.005 4.843 6.86 6.86 0 0 1-4.842 2.005Zm123.257 232.817H142.506a6.845 6.845 0 0 1-6.847-6.847v-13.695a6.85 6.85 0 0 1 6.847-6.847h314.989a6.845 6.845 0 0 1 6.847 6.847v13.695a6.849 6.849 0 0 1-6.847 6.847Z" fill="#FFDC64"/><path d="M283.468 227.084 171.901 338.651a6.819 6.819 0 0 0 4.843 2.005h157.494v-82.17l-31.402-31.402c-5.348-5.349-14.02-5.349-19.368 0Z" fill="#81DEB6"/><path d="M429.676 333.809v-95.866l-31.401-31.401c-5.347-5.347-14.019-5.347-19.367 0L244.792 340.657h178.037a6.846 6.846 0 0 0 6.847-6.848Z" fill="#B4E66E"/><path d="M403.241 202.43a19.981 19.981 0 0 0-14.224-5.891 19.982 19.982 0 0 0-14.223 5.891l-99.876 99.877a6.42 6.42 0 0 0 0 9.079 6.427 6.427 0 0 0 4.54 1.88 6.428 6.428 0 0 0 4.539-1.88l99.876-99.877a7.235 7.235 0 0 1 5.144-2.132c1.943 0 3.771.757 5.145 2.132l22.674 22.674v93.634H192.241l95.766-95.766a7.23 7.23 0 0 1 5.144-2.132c1.943 0 3.77.757 5.145 2.132l10.859 10.859a6.409 6.409 0 0 0 2.083 1.391 6.406 6.406 0 0 0 4.913 0 6.404 6.404 0 0 0 3.474-3.474 6.415 6.415 0 0 0-1.392-6.996l-10.859-10.858a19.981 19.981 0 0 0-14.223-5.892 19.985 19.985 0 0 0-14.224 5.892L172.205 329.698a6.413 6.413 0 0 0-1.758 3.287 6.412 6.412 0 0 0 2.729 6.591 6.427 6.427 0 0 0 3.568 1.081h246.512a6.42 6.42 0 0 0 6.42-6.42V231.523a6.413 6.413 0 0 0-1.88-4.538l-24.555-24.555Zm-185.412 35.513c18.642 0 33.81-15.167 33.81-33.81 0-18.642-15.168-33.809-33.81-33.809-18.642 0-33.81 15.167-33.81 33.809 0 18.643 15.166 33.81 33.81 33.81Zm0-54.78c11.563 0 20.971 9.407 20.971 20.97 0 11.564-9.408 20.971-20.971 20.971s-20.971-9.407-20.971-20.971c0-11.563 9.407-20.97 20.971-20.97Z" fill="#000"/><path d="M457.495 355.208h-.428V149.353c0-7.316-5.951-13.267-13.267-13.267h-96.294v-.428c0-7.316-5.952-13.267-13.268-13.267h-14.123v-14.124C320.114 100.951 314.163 95 306.848 95h-13.695c-7.316 0-13.267 5.951-13.267 13.267v14.124h-14.124c-7.316 0-13.267 5.951-13.267 13.267v.428h-96.294c-7.316 0-13.267 5.951-13.267 13.267v205.855h-.428c-7.316 0-13.267 5.951-13.267 13.267v13.695c0 7.316 5.951 13.267 13.267 13.267h40.198l-19.118 101.959a6.42 6.42 0 1 0 12.619 2.366l19.561-104.325h14.328l-19.118 101.958a6.41 6.41 0 0 0 1.371 5.287 6.423 6.423 0 0 0 9.042.835 6.423 6.423 0 0 0 2.206-3.756l11.857-63.24h64.433v62.057a6.42 6.42 0 1 0 12.839 0V395.437h14.551v103.142a6.42 6.42 0 0 0 12.84 0v-62.057h64.433l11.857 63.239a6.424 6.424 0 0 0 7.493 5.127 6.42 6.42 0 0 0 5.126-7.493l-19.118-101.958h14.328l19.561 104.325a6.42 6.42 0 0 0 12.619-2.366l-19.118-101.958h40.198c7.316 0 13.267-5.951 13.267-13.267v-13.695c0-7.317-5.951-13.268-13.266-13.268ZM292.724 108.267c0-.236.192-.427.428-.427h13.695c.236 0 .428.191.428.427v14.124h-14.551v-14.124Zm-27.39 27.39c0-.236.191-.427.427-.427h68.476c.236 0 .428.191.428.427v13.695a.44.44 0 0 1-.126.302.415.415 0 0 1-.302.126h-68.476a.42.42 0 0 1-.395-.264.44.44 0 0 1-.032-.164v-13.695Zm-109.561 13.696c0-.236.191-.428.427-.428h96.294v.428c0 7.316 5.952 13.267 13.267 13.267h68.476c7.316 0 13.267-5.951 13.267-13.267v-.428h96.294c.236 0 .428.191.428.427v205.855H155.773V149.353Zm124.113 274.33h-62.025l5.297-28.246h56.728v28.246Zm102.254 0h-62.025v-28.246h56.729l5.296 28.246Zm75.782-41.513a.428.428 0 0 1-.427.428H142.506a.428.428 0 0 1-.427-.428v-13.695c0-.236.191-.428.427-.428h314.989c.236 0 .427.192.427.428v13.695Z" fill="#000"/></svg>